<?xml version="1.0" encoding="utf-8"?>
<!-- Generator: Adobe Illustrator 26.0.1, SVG Export Plug-In . SVG Version: 6.00 Build 0)  -->
<svg version="1.1" id="Layer_1" xmlns="http://www.w3.org/2000/svg" xmlns:xlink="http://www.w3.org/1999/xlink" x="0px" y="0px"
	 viewBox="0 0 241.55 241.2" style="enable-background:new 0 0 241.55 241.2;" xml:space="preserve">
<style type="text/css">
	.st0{fill:#ff6459;}
</style>
<g>
	
	<path fill='#ff6459' class="st0" d="M212.74,49.4c0,5.25,0,8.84,0,12.44c0,4.93-0.01,9.86,0,14.79c0.03,10.03,5.46,16.5,13.89,16.55
		c8.11,0.05,14.26-6.34,14.36-15.81c0.21-20.66,0.16-41.33,0.03-62c-0.05-7.52-7.52-15.2-14.85-15.24
		c-21.22-0.13-42.44-0.21-63.66,0.04c-9.32,0.11-15.62,8.91-13.39,17.76c1.62,6.42,7.21,10.42,15.06,10.52
		c8.78,0.11,17.57,0.02,27.94,0.02c-9.1,9.02-17.03,16.84-24.91,24.7c-7.24,7.23-14.66,14.3-21.57,21.84
		c-6.11,6.68-5.26,14.79,1.52,21.11c6.12,5.71,13.11,5.48,19.64-0.76c3.7-3.53,7.25-7.22,10.87-10.84
		C189.02,73.16,200.36,61.8,212.74,49.4z M49.71,212.88c2.19-2.34,3.42-3.72,4.73-5.03c13.4-13.43,26.84-26.82,40.21-40.27
		c5.66-5.69,6.82-11.02,3.95-16.87c-4.83-9.82-17.32-11.33-25.89-2.93c-10.43,10.22-20.69,20.62-30.99,30.98
		c-4.09,4.11-8.07,8.32-13.33,13.76c0-10.51,0.1-19.15-0.03-27.78c-0.14-9.91-5.95-16.09-14.64-15.87
		c-8.26,0.21-13.67,6.56-13.69,16.24c-0.04,19.74-0.03,39.47,0,59.21c0.01,9.75,6.98,16.81,16.72,16.83c20.1,0.05,40.2,0.05,60.3,0
		c9.37-0.02,15.95-5.89,16.06-14.11c0.11-8.16-6.49-14.09-15.88-14.15C68.53,212.84,59.82,212.88,49.71,212.88z M29.59,49.51
		c6.42,6.44,11.7,11.76,17,17.06c9.65,9.66,19.14,19.47,29,28.9c8.6,8.22,21.28,4.74,24.08-6.33c1.61-6.38-1.73-10.92-5.86-15.07
		C80.56,60.78,67.28,47.52,54.03,34.23c-1.22-1.22-2.31-2.58-4.1-4.59c10.09,0,18.98,0.05,27.87-0.04c2.04-0.02,4.2-0.21,6.09-0.92
		c6.27-2.33,9.98-8.62,9.03-14.79c-1.16-7.48-6.78-12.46-15.2-12.53C56.49,1.17,35.27,1.25,14.05,1.33
		C8.54,1.35,1.23,8.74,1.22,14.43C1.18,35.85,1.23,57.28,1.44,78.7c0.06,6.17,2.94,11.01,8.85,13.35
		c9.58,3.81,18.95-2.64,19.25-13.36C29.8,69.51,29.59,60.3,29.59,49.51z M192.89,212.96c-11.19,0-20.64-0.15-30.08,0.05
		c-6.33,0.13-11.43,4.54-13.11,10.71c-1.43,5.26,0.81,12.09,5.88,14.79c3.17,1.69,7.16,2.5,10.8,2.55
		c19.52,0.24,39.04,0.12,58.56,0.11c9.62-0.01,16.43-6.69,16.44-16.25c0.04-19.72-0.32-39.45,0.17-59.17
		c0.21-8.38-6.04-16.01-14.6-16.35c-8.27-0.33-14.18,6.55-14.2,16.27c-0.02,8.64,0,17.27,0,27.02c-2.22-2.04-3.6-3.22-4.88-4.5
		c-13.14-13.13-26.26-26.29-39.42-39.4c-1.46-1.46-3.02-2.9-4.76-4c-6.17-3.89-12.57-3.03-17.47,2.16
		c-4.98,5.29-5.37,12.19-0.87,18.04c1.49,1.94,3.28,3.67,5.02,5.41C164.14,184.2,177.92,197.98,192.89,212.96z"/>
	<path fill='#ff6459' d="M212.74,49.4c-12.39,12.41-23.72,23.76-35.06,35.11c-3.62,3.62-7.17,7.31-10.87,10.84c-6.53,6.25-13.53,6.47-19.64,0.76
		c-6.78-6.32-7.63-14.44-1.52-21.11c6.91-7.54,14.33-14.61,21.57-21.84c7.88-7.86,15.8-15.68,24.91-24.7
		c-10.37,0-19.16,0.08-27.94-0.02c-7.84-0.1-13.43-4.1-15.06-10.52c-2.24-8.85,4.07-17.65,13.39-17.76
		c21.22-0.25,42.44-0.17,63.66-0.04c7.34,0.05,14.81,7.73,14.85,15.24c0.13,20.67,0.18,41.33-0.03,62
		c-0.1,9.46-6.25,15.85-14.36,15.81c-8.43-0.05-13.87-6.52-13.89-16.55c-0.01-4.93,0-9.86,0-14.79
		C212.74,58.24,212.74,54.65,212.74,49.4z"/>
	<path fill='#ff6459' d="M49.71,212.88c10.11,0,18.82-0.05,27.52,0.01c9.39,0.06,15.99,5.99,15.88,14.15c-0.11,8.21-6.7,14.08-16.06,14.11
		c-20.1,0.05-40.2,0.05-60.3,0c-9.73-0.02-16.7-7.08-16.72-16.83c-0.03-19.74-0.03-39.47,0-59.21c0.02-9.68,5.43-16.03,13.69-16.24
		c8.7-0.22,14.5,5.97,14.64,15.87c0.13,8.63,0.03,17.27,0.03,27.78c5.26-5.44,9.24-9.65,13.33-13.76
		c10.3-10.36,20.56-20.76,30.99-30.98c8.57-8.4,21.06-6.89,25.89,2.93c2.88,5.85,1.71,11.18-3.95,16.87
		c-13.37,13.46-26.81,26.85-40.21,40.27C53.13,209.16,51.9,210.55,49.71,212.88z"/>
	<path fill='#ff6459' d="M29.59,49.51c0,10.8,0.2,20-0.05,29.19c-0.3,10.72-9.67,17.17-19.25,13.36C4.38,89.71,1.5,84.88,1.44,78.7
		c-0.2-21.43-0.25-42.85-0.22-64.28C1.23,8.74,8.54,1.35,14.05,1.33c21.22-0.08,42.45-0.15,63.67,0.04
		c8.42,0.08,14.04,5.06,15.2,12.53c0.96,6.17-2.76,12.47-9.03,14.79c-1.89,0.7-4.05,0.89-6.09,0.92
		c-8.89,0.09-17.78,0.04-27.87,0.04c1.79,2.01,2.88,3.36,4.1,4.59c13.25,13.29,26.53,26.55,39.78,39.84
		c4.13,4.15,7.47,8.69,5.86,15.07c-2.79,11.07-15.48,14.55-24.08,6.33c-9.86-9.43-19.35-19.25-29-28.9
		C41.3,61.26,36.01,55.95,29.59,49.51z"/>
	<path fill='#ff6459' d="M192.89,212.96c-14.97-14.98-28.75-28.75-42.52-42.55c-1.74-1.74-3.52-3.47-5.02-5.41c-4.51-5.85-4.11-12.75,0.87-18.04
		c4.89-5.2,11.3-6.06,17.47-2.16c1.74,1.1,3.29,2.54,4.76,4c13.16,13.11,26.27,26.27,39.42,39.4c1.28,1.28,2.66,2.46,4.88,4.5
		c0-9.74-0.01-18.38,0-27.02c0.02-9.73,5.93-16.6,14.2-16.27c8.56,0.34,14.8,7.97,14.6,16.35c-0.49,19.71-0.13,39.44-0.17,59.17
		c-0.02,9.56-6.82,16.24-16.44,16.25c-19.52,0.01-39.04,0.13-58.56-0.11c-3.64-0.04-7.63-0.85-10.8-2.55
		c-5.06-2.7-7.31-9.54-5.88-14.79c1.68-6.17,6.78-10.58,13.11-10.71C172.25,212.81,181.7,212.96,192.89,212.96z"/>
</g>
</svg>
