<?xml version="1.0" encoding="utf-8"?>
<!-- Generator: Adobe Illustrator 26.0.1, SVG Export Plug-In . SVG Version: 6.00 Build 0)  -->
<svg version="1.1" id="Layer_1" xmlns="http://www.w3.org/2000/svg" xmlns:xlink="http://www.w3.org/1999/xlink" x="0px" y="0px"
	 viewBox="0 0 72.2 58.5" style="enable-background:new 0 0 72.2 58.5;" xml:space="preserve">
<style type="text/css">
	.st0{fill:#FFFFFF;}
</style>
<g>
	<path class="st0" d="M17.6,24.1c0.5,0,1,0,1.6,0c15.8,0,31.6,0,47.5,0c3.1,0,5.4,1.9,5.6,4.7c0.2,3.1-2.1,5.5-5.3,5.6
		c-3.4,0-6.8,0-10.3,0c-12.5,0-25,0-37.5,0c-0.5,0-1,0-1.9,0c0.6,0.6,0.8,1,1.2,1.3c4.7,4.7,9.4,9.4,14.1,14.1
		c2.9,2.9,1.8,7.4-2,8.5c-2,0.5-3.6-0.2-5.1-1.6C20,51.3,14.7,46,9.3,40.6c-2.4-2.5-4.9-4.9-7.3-7.4c-2.6-2.6-2.6-5.3,0-7.9
		C9.8,17.4,17.7,9.5,25.6,1.7c2.8-2.8,7.1-2,8.3,1.6c0.7,2.1,0.1,3.9-1.4,5.5c-4.6,4.6-9.2,9.2-13.9,13.8c-0.4,0.4-1,0.7-1.4,1
		C17.3,23.7,17.4,23.9,17.6,24.1z"/>
</g>
</svg>
