<?xml version="1.0" encoding="utf-8"?>
<!-- Generator: Adobe Illustrator 26.0.1, SVG Export Plug-In . SVG Version: 6.00 Build 0)  -->
<svg version="1.1" id="Layer_1" xmlns="http://www.w3.org/2000/svg" xmlns:xlink="http://www.w3.org/1999/xlink" x="0px" y="0px"
	 viewBox="0 0 37.9 63.6" style="enable-background:new 0 0 37.9 63.6;" xml:space="preserve">
<style type="text/css">
	.st0{fill:#E30613;}
	.st1{fill:#FFFFFF;}
	.st2{fill:#53E700;}
</style>
<g>
	<path class="st0" d="M19,51.1c-1.1,0-2.1,0-3.2,0c-3.2,0-5.1-1.9-5.2-5.2c0-2.2,0-4.4-0.7-6.6c-1-3.1-2.9-5.4-5-7.8
		c-3.7-4.1-5.4-9-4.7-14.6c1-8,5.4-13.5,13-16c6.7-2.2,13.1-0.9,18.4,3.9c6.7,6,8.3,15,4.1,23c-1,1.9-2.5,3.6-4,5.2
		c-2.9,3.2-4.4,6.9-4.4,11.2c0,0.8,0,1.6,0,2.4c-0.3,2.7-2.1,4.4-4.8,4.5C21.3,51.1,20.1,51.1,19,51.1z M18.9,47.6c1,0,1.9,0,2.9,0
		c1.6,0,1.9-0.4,1.9-1.9c0.1-2,0.1-4.1,0.5-6.1c0.7-3.6,2.6-6.7,5.2-9.4c3.8-3.7,5.4-8.3,4.6-13.6C33,7.5,23.2,1.3,14.4,4.2
		C3.3,7.7-0.2,21.4,7.9,29.8c1.6,1.7,3,3.4,4.1,5.5c1.7,3.3,2.2,6.9,2.1,10.6c0,1.3,0.4,1.7,1.7,1.7C16.8,47.7,17.9,47.6,18.9,47.6z
		"/>
	<path d="M18.9,59.5c-1.8,0-3.6,0-5.4,0c-1,0-1.6-0.6-1.5-1.5c0.1-0.7,0.6-1.1,1.4-1.1c3.7,0,7.3,0,11,0c0.9,0,1.4,0.5,1.4,1.2
		c0,0.7-0.5,1.3-1.4,1.3C22.6,59.5,20.8,59.5,18.9,59.5C18.9,59.5,18.9,59.5,18.9,59.5z"/>
	<path d="M18.9,55.4c-1.8,0-3.5,0-5.3,0c-1,0-1.6-0.5-1.6-1.3c0-0.8,0.6-1.3,1.6-1.3c3.5,0,7.1,0,10.6,0c1,0,1.6,0.5,1.6,1.3
		c0,0.8-0.6,1.3-1.5,1.3C22.5,55.4,20.7,55.4,18.9,55.4z"/>
	<path d="M18.9,61c0.9,0,1.8,0,2.6,0c0.9,0,1.4,0.5,1.4,1.3c0,0.7-0.5,1.2-1.4,1.3c-1.8,0-3.6,0-5.4,0c-0.9,0-1.4-0.5-1.4-1.3
		c0-0.8,0.5-1.3,1.4-1.3C17.2,61,18.1,61,18.9,61z"/>
	<path class="st1" d="M19.9,5.7c-1.6,0-2.2,0.3-2.3,1.1c-0.1,0.8,0.5,1.3,1.7,1.4c2.4,0.2,4.5,0.9,6.3,2.4c0.9,0.7,1.6,0.6,2.1,0
		c0.5-0.6,0.3-1.4-0.5-2.1C25,6.8,22.5,5.8,19.9,5.7z M32.3,18.3c0,0,0.1,0,0.1,0c-0.3-1.3-0.6-2.6-1-3.9c-0.2-0.8-0.9-1.1-1.6-0.9
		c-0.7,0.2-1,0.8-0.8,1.5c0.2,1.4,0.5,2.8,0.8,4.2c0.2,0.7,0.6,1.2,1.4,1.1c0.8-0.1,1.1-0.6,1.1-1.3C32.3,18.8,32.3,18.6,32.3,18.3z
		"/>
	<path d="M19.9,5.7c2.5,0.1,5.1,1.1,7.3,2.9c0.9,0.7,1,1.5,0.5,2.1c-0.5,0.6-1.2,0.7-2.1,0c-1.9-1.5-4-2.2-6.3-2.4
		c-1.2-0.1-1.8-0.6-1.7-1.4C17.7,6,18.3,5.7,19.9,5.7z"/>
	<path d="M32.3,18.3c0,0.2,0,0.4,0,0.6c-0.1,0.7-0.4,1.2-1.1,1.3c-0.8,0.1-1.3-0.4-1.4-1.1c-0.3-1.4-0.5-2.8-0.8-4.2
		c-0.1-0.7,0.1-1.3,0.8-1.5c0.7-0.2,1.4,0.1,1.6,0.9c0.4,1.3,0.7,2.6,1,3.9C32.4,18.3,32.3,18.3,32.3,18.3z"/>
</g>
<path class="st2" d="M18.9,47.6c1,0,1.9,0,2.9,0c1.6,0,1.9-0.4,1.9-1.9c0.1-2,0.1-4.1,0.5-6.1c0.7-3.6,2.6-6.7,5.2-9.4
	c3.8-3.7,5.4-8.3,4.6-13.6C33,7.5,23.2,1.3,14.4,4.2C3.3,7.7-0.2,21.4,7.9,29.8c1.6,1.7,3,3.4,4.1,5.5c1.7,3.3,2.2,6.9,2.1,10.6
	c0,1.3,0.4,1.7,1.7,1.7C16.8,47.7,17.9,47.6,18.9,47.6z"/>
</svg>
