<?xml version="1.0" encoding="utf-8"?>
<!-- Generator: Adobe Illustrator 26.0.1, SVG Export Plug-In . SVG Version: 6.00 Build 0)  -->
<svg version="1.1" id="Layer_1" xmlns="http://www.w3.org/2000/svg" xmlns:xlink="http://www.w3.org/1999/xlink" x="0px" y="0px"
	 viewBox="0 0 90.15 42.01" style="enable-background:new 0 0 90.15 42.01;" xml:space="preserve">
<style type="text/css">
	.st0{fill:#FFFFFF;}
</style>
<g>
	<path class="st0" d="M48.22,20.85c0-6.12-0.01-12.24,0-18.36c0-2.07,0.39-2.49,2.45-2.49C63.04,0,75.4,0,87.77,0.01
		c1.91,0,2.37,0.49,2.37,2.4c0,12.41,0.01,24.81,0,37.22c0,1.98-0.38,2.38-2.35,2.38c-12.37,0.01-24.73,0.01-37.1,0
		c-2.07,0-2.46-0.41-2.47-2.46C48.22,33.32,48.22,27.09,48.22,20.85z M86.64,3.43c-0.03-0.12-0.05-0.24-0.08-0.37
		c-0.88,0.34-1.98,0.44-2.59,1.04C73.35,14.62,62.79,25.2,52.2,35.74c-0.9,0.9-1.06,1.82-0.7,2.71
		C63.22,26.78,74.93,15.11,86.64,3.43z M86.91,6.07c-10.9,10.88-21.82,21.79-32.66,32.62c1.1,0.26,2.13-0.08,3.16-1.13
		C66.86,28.03,76.36,18.55,85.9,9.1C86.91,8.1,87.16,7.12,86.91,6.07z M58.4,38.64c1.27,0.34,2.32-0.08,3.38-1.15
		c7.98-8.05,16-16.06,24.06-24.03c1.04-1.03,1.33-2.05,1.01-3.35C77.34,19.65,67.88,29.14,58.4,38.64z M51.36,34.02
		C61.59,23.81,71.93,13.49,82.12,3.32c-1.09-0.29-2.11,0.32-3.15,1.37c-8.73,8.8-17.51,17.55-26.31,26.28
		C51.65,31.97,51.07,32.96,51.36,34.02z M78.07,3.39c-1.25-0.35-2.28,0.15-3.34,1.23c-7.35,7.43-14.75,14.81-22.18,22.16
		c-1.03,1.01-1.44,2.01-1.09,3.18C60.31,21.11,69.19,12.25,78.07,3.39z M86.91,14.65c-8.02,8.02-16.08,16.07-24.04,24.03
		c1.1,0.28,2.13-0.08,3.15-1.13c6.5-6.59,13.06-13.12,19.64-19.63C86.68,16.93,87.27,15.94,86.91,14.65z M51.41,25.61
		c7.46-7.41,14.94-14.84,22.36-22.21c-1.26-0.35-2.29,0.15-3.35,1.22c-5.9,5.99-11.86,11.93-17.86,17.82
		C51.53,23.46,51.12,24.48,51.41,25.61z M86.87,18.86c-6.64,6.63-13.25,13.22-19.83,19.79c1.17,0.26,2.21,0.02,3.25-1.04
		c5.14-5.25,10.35-10.43,15.59-15.58C86.87,21.06,87.21,20.07,86.87,18.86z M69.68,3.44c-1.45-0.38-2.5,0.07-3.55,1.16
		c-4.5,4.61-9.1,9.12-13.66,13.67c-1.28,1.28-1.33,1.5-0.87,3.19C57.58,15.5,63.6,9.5,69.68,3.44z M71.23,38.61
		c1.34,0.34,2.38,0.02,3.41-1.04c3.71-3.83,7.5-7.59,11.31-11.32c1.01-0.98,1.28-1.97,0.85-3.19C81.6,28.25,76.45,33.4,71.23,38.61z
		 M51.43,17.01c4.54-4.52,9.13-9.1,13.69-13.64c-1.1-0.17-2.15-0.01-3.19,1.08c-3.08,3.25-6.27,6.4-9.49,9.51
		C51.45,14.93,51.16,15.94,51.43,17.01z M75.65,38.65c1.17,0.24,2.22,0.05,3.24-1.04c2.29-2.46,4.69-4.81,7.12-7.13
		c1.04-0.98,1.12-2,0.84-3C83.11,31.21,79.37,34.95,75.65,38.65z M60.83,3.42c-1.89-0.19-1.89-0.19-3.3,1.21
		c-1.66,1.66-3.27,3.37-5,4.95c-1.07,0.97-1.42,2.01-1.05,3.27C54.61,9.7,57.73,6.55,60.83,3.42z M79.91,38.65
		c1.44,0.36,2.56-0.11,3.5-1.28c0.74-0.91,1.59-1.74,2.48-2.5c1.07-0.91,1.3-1.96,0.98-3.1C84.56,34.05,82.24,36.35,79.91,38.65z
		 M51.48,8.49c1.75-1.65,3.51-3.31,5.28-4.97C53.76,3.02,51.16,5.58,51.48,8.49z M86.84,35.81c-0.96,1.02-1.81,1.93-2.61,2.78
		C86.91,38.96,87.14,38.74,86.84,35.81z"/>
	<path class="st0" d="M41.92,21.2c0,6.12,0.01,12.24,0,18.36c0,2.06-0.4,2.45-2.46,2.45c-12.31,0.01-24.62,0.01-36.93,0
		c-2.2,0-2.53-0.33-2.53-2.54c0-12.35,0-24.7,0-37.05c0-1.93,0.41-2.4,2.35-2.4C14.78,0,27.2,0,39.63,0.01
		c1.79,0,2.29,0.52,2.29,2.33C41.93,8.63,41.92,14.91,41.92,21.2z M38.72,38.86c0-12,0-23.8,0-35.62c-11.94,0-23.75,0-35.55,0
		c0,11.94,0,23.75,0,35.62C15.07,38.86,26.84,38.86,38.72,38.86z"/>
</g>
</svg>
