<?xml version="1.0" encoding="utf-8"?>
<!-- Generator: Adobe Illustrator 26.0.1, SVG Export Plug-In . SVG Version: 6.00 Build 0)  -->
<svg version="1.1" id="Layer_1" xmlns="http://www.w3.org/2000/svg" xmlns:xlink="http://www.w3.org/1999/xlink" x="0px" y="0px"
	 viewBox="0 0 113.8 119.9" style="enable-background:new 0 0 103.8 119.9;" xml:space="preserve">
<style type="text/css">
	.st0{fill:white;}
</style>
<g>
	<path class="st0" d="M17.6,68.2c1.5,4.2,3.5,8,3.2,12.9c-0.2,3.1,1,6.7,2.8,9.3c2.8,4.1,7.7,3.5,10.7-0.9
		c3.6-5.2,3.3-15.5-1.2-19.1c-1-0.8-1.5-2.2-1.9-3.5c-1.6-5.9-3-11.8-4.6-17.7c-0.6-2-0.1-3.5,1.1-5.2C35.8,33,46,25.1,59.6,22.4
		c22-4.4,40.4,10.2,43.6,31.9c2.6,17.6-4.2,32.3-14.3,46c-4.3,5.8-9,11.3-15.3,14.8c-3.8,2.1-8.1,3.5-12.3,4.3
		c-4.9,0.9-8.6-2.1-8.8-7.1c-0.2-4.3,0.8-8.5,1.1-12.8c0.2-2.9,0.5-5.9,0.3-8.8c-0.5-5.4-5.6-7.6-9.9-4.4c-1.6,1.2-2.8,2.8-4,4.4
		c-3.7,4.9-8.6,7.6-14.5,5.7c-6.1-1.9-9.2-7-9.4-13.3c-0.2-5,0.4-10,0.7-15C16.9,68.1,17.3,68.1,17.6,68.2z M84.1,47.9
		c4.2,0.1,8-3.6,8.2-7.9c0.2-4.4-3.6-8.3-8-8.4c-4.4-0.1-8.2,3.5-8.4,8.1C75.8,43.9,79.6,47.8,84.1,47.9z M56.2,106.8
		c0,4.3,3.8,8.2,8,8.2c4.6,0,8.5-3.9,8.4-8.5c-0.1-4.3-3.8-7.9-8.2-7.9C59.9,98.6,56.2,102.3,56.2,106.8z M88.4,69.5
		c-4.6,0.1-8,3.4-8,7.9c0,4.7,3.5,8.2,8.1,8.2c4.8,0,8.3-3.6,8.2-8.4C96.5,72.7,93,69.4,88.4,69.5z M83.4,58.1
		c0,4.6,3.6,8.3,8.1,8.3c4.4-0.1,8-3.7,8-8.1c0-4.8-3.5-8.3-8.1-8.3C87,50,83.5,53.6,83.4,58.1z M79.2,86c-4.6,0-8.3,3.6-8.3,8.1
		c0,4.4,3.6,8,8,8c4.7,0,8.3-3.5,8.4-8.1C87.3,89.6,83.7,86,79.2,86z M47.3,32.8C42.5,32.7,39,36,39,40.7c0,4.6,3.3,8.1,7.7,8.2
		c4.6,0.1,8.3-3.5,8.4-8C55.1,36.3,51.8,32.8,47.3,32.8z M65.5,41.8c4.5,0,8.1-3.5,8.1-7.9c0-4.8-3.5-8.3-8-8.3
		c-4.6,0.1-8.1,3.7-8.1,8.3C57.5,38.4,60.9,41.8,65.5,41.8z"/>
	<path class="st0" d="M28.3,90.5c-5.4-14.8-10.8-29.6-16.2-44.4c-0.8-2.3-1.7-4.5-2.5-6.8c-1.3-4.1,0.2-7.4,3.7-8.4
		c3.5-1,6.4,0.7,7.5,4.8c4.2,16.2,8.3,32.4,12.5,48.7C34,87.4,31.7,90.2,28.3,90.5z"/>
	<path class="st0" d="M14.3,0.6c-4,3.6-4.3,5.6-1.7,9.8c1.3,2.1,2.9,4.1,4.3,6.3c1.7,2.8,2.5,5.8,1.2,9c-0.8,1.9-1.7,3.6-4.2,3.5
		c-0.7,0-1.4,0.3-2.1,0.7c-4.9,2.5-9.3,1-11-4.4c-0.8-2.5-1-5.4-0.6-8C1,11.9,3.5,7,7.2,2.8C8.9,0.8,10.9-0.9,14.3,0.6z"/>
	<path class="st0" d="M31.5,99.1c1.8-0.7,3.3-1.2,5.2-1.9c1.7,6.9,3.4,13.7,5,20.5c0.2,0.6-0.6,1.5-1,2.3c-0.7-0.6-1.8-1.1-2.1-1.8
		C36.1,111.8,33.8,105.5,31.5,99.1z"/>
</g>
</svg>
