<?xml version="1.0" encoding="utf-8"?>
<!-- Generator: Adobe Illustrator 26.0.2, SVG Export Plug-In . SVG Version: 6.00 Build 0)  -->
<svg version="1.1" id="Layer_1" xmlns="http://www.w3.org/2000/svg" xmlns:xlink="http://www.w3.org/1999/xlink" x="0px" y="0px"
	 viewBox="0 0 1031.91 173.85" style="enable-background:new 0 0 1031.91 173.85;" xml:space="preserve">
<style type="text/css">
	.st0{enable-background:new    ;}
</style>
<g>
	<g class="st0">
		<path fill='#4eadab' d="M1004.27,18.04c-0.09,0-0.18-0.09-0.18-0.18l0.12-7.84l-0.07-5.43h-4.47c-0.09,0-0.18-0.09-0.18-0.18V2.17
			c0-0.09,0.09-0.18,0.18-0.18h12.48c0.09,0,0.18,0.09,0.18,0.18V4.4c0,0.09-0.09,0.18-0.18,0.18h-4.47l-0.07,5.43l0.12,7.84
			c0,0.09-0.09,0.18-0.18,0.18H1004.27z"/>
		<path fill='#4eadab' d="M1015.98,10.68v7.18c0,0.09-0.09,0.18-0.18,0.18h-2.77c-0.09,0-0.18-0.09-0.18-0.18l0.05-7.84l-0.05-7.84
			c0-0.09,0.09-0.18,0.18-0.18h4.27c0.11,0,0.21,0.07,0.25,0.18l4.29,11.56l4.04-11.56c0.05-0.12,0.14-0.18,0.25-0.18h3.99
			c0.09,0,0.18,0.09,0.18,0.18l-0.05,7.84l0.05,7.84c0,0.09-0.09,0.18-0.18,0.18h-3.12c-0.09,0-0.18-0.09-0.18-0.18v-7.18l0.11-3.21
			V6.76l-3.9,11.1c-0.05,0.12-0.14,0.18-0.25,0.18h-2.39c-0.11,0-0.21-0.07-0.25-0.18l-4.29-11.56l0.02,1.22L1015.98,10.68z"/>
	</g>
	<path fill='#4eadab' d="M59.77,173.61c-36.88,0-58.81-14.7-59.77-42.66c0-0.96,0.96-1.93,1.93-1.93h31.33c0.96,0,1.93,0.72,1.93,1.93
		c0.72,13.98,9.88,20.25,27,20.25c14.22,0,21.93-5.54,21.93-15.18c0-23.62-81.23-0.72-81.23-52.79c0-25.79,20.73-39.53,54.23-39.53
		c32.78,0,54.71,13.02,56.64,39.29c0.24,0.96-0.72,1.93-1.69,1.93H82.19c-0.96,0-1.93-0.72-2.17-1.93
		c-1.93-10.61-8.68-17.35-23.38-17.35c-11.81,0-19.28,4.34-19.28,14.94c0,23.62,81.23-0.48,81.23,52.3
		C118.59,158.9,94,173.61,59.77,173.61z"/>
	<path fill='#4eadab' d="M219.08,170.71c-0.96,0-2.17-0.72-2.41-1.93l-19.52-90.63l-17.11,90.63c0,1.21-1.21,1.93-2.17,1.93H139.3
		c-0.96,0-2.17-0.72-2.41-1.93L110.38,48.51c-0.24-0.96,0.48-1.93,1.45-1.93h32.54c0.96,0,2.17,0.96,2.17,1.93l13.98,91.11
		l17.35-91.11c0-1.21,1.21-1.93,2.17-1.93h39.77c0.96,0,2.17,0.72,2.17,1.93l16.63,89.18l14.7-89.18c0-0.96,1.21-1.93,2.17-1.93
		h29.65c0.96,0,1.69,0.96,1.45,1.93L260.3,168.79c-0.24,1.21-1.45,1.93-2.41,1.93L219.08,170.71L219.08,170.71z"/>
	<path fill='#4eadab' d="M372.19,170.71c-0.96,0-1.93-0.96-1.93-1.93l0.48-12.53c-8.68,10.61-20.97,16.87-36.64,16.87
		c-35.19,0-53.75-27.96-53.75-64.11c0-35.91,20.73-64.84,54.47-64.84c15.43,0,27.48,5.54,35.91,15.67l-0.72-11.33
		c0-0.96,0.96-1.93,1.93-1.93h32.54c0.96,0,1.93,0.96,1.93,1.93l-0.48,60.26l0.48,60.02c0,0.96-0.96,1.93-1.93,1.93L372.19,170.71
		L372.19,170.71z M344.23,149.02c17.6,0,27-13.26,27.24-39.53c0.24-26.51-9.16-40.97-26.51-41.22
		c-18.32-0.48-27.72,13.26-27.72,38.81C317.23,135.04,326.88,149.26,344.23,149.02z"/>
	<path fill='#4eadab' d="M553.25,173.85c-39.77,0-63.39-25.31-63.39-64.84s23.62-65.56,64.11-65.56c32.06,0,52.79,18.08,55.44,45.31
		c0.24,0.96-0.72,1.93-1.69,1.93h-29.65c-0.96,0-1.93-0.72-2.17-1.93c-2.65-14.22-11.57-20.97-21.93-20.97
		c-18.32,0.24-27,13.5-27,40.97c0,28.44,8.92,40.73,27,40.97c12.29,0.24,21.45-8.44,22.9-24.83c0.24-1.21,1.21-1.93,2.17-1.93h30.37
		c0.96,0,1.93,0.96,1.69,1.93C608.69,153.36,585.79,173.85,553.25,173.85z"/>
	<path fill='#4eadab' d="M679.31,70.21c-11.57,0-24.1,9.16-28.2,26.51l0.72,72.07c0,0.96-0.96,1.93-1.93,1.93h-31.82c-0.96,0-1.93-0.96-1.93-1.93
		l0.72-82.67l-0.72-82.19c0-0.96,0.96-1.93,1.93-1.93h31.82c0.96,0,1.93,0.96,1.93,1.93l-0.48,56.4
		c8.68-11.09,21.21-16.63,37.6-16.63c27.96,0,45.07,16.63,44.35,53.03v26.51l0.48,45.55c0,0.96-0.96,1.93-1.93,1.93h-32.78
		c-0.96,0-1.93-0.96-1.93-1.93l0.48-45.07V92.38C697.38,77.44,689.19,70.21,679.31,70.21z"/>
	<path fill='#4eadab' d="M860.08,128.78c0.96,0,1.93,0.96,1.69,1.93c-2.89,22.9-24.58,43.14-59.53,43.14c-41.46,0-63.87-27.24-63.87-64.84
		c0-39.53,23.62-65.56,63.15-65.56c40.97,0,63.39,27.24,64.11,70.62c0,0.96-0.96,1.93-1.93,1.93h-88.94
		c1.45,23.38,10.61,33.74,27.96,33.74c12.29,0,20.97-5.54,24.1-19.04c0.24-1.21,1.45-1.93,2.41-1.93L860.08,128.78L860.08,128.78z
		 M801.75,67.31c-14.46,0-23.14,8.68-26.03,25.79h50.86C825.13,79.85,817.66,67.31,801.75,67.31z"/>
	<path fill='#4eadab' d="M960.59,170.71c-0.96,0-1.93-0.96-1.93-1.93l0.72-12.53c-8.68,10.61-20.97,16.87-36.64,16.87
		c-35.19,0-53.75-27.96-53.75-64.11c0-35.91,20.73-64.84,54.47-64.84c15.19,0,27,5.3,35.43,15.19V3.92c0-0.96,0.96-1.93,1.93-1.93
		h32.3c0.96,0,1.93,0.96,1.93,1.93l-0.24,82.43l0.24,82.43c0,0.96-0.96,1.93-1.93,1.93L960.59,170.71L960.59,170.71z M932.87,149.26
		c17.59,0,27-13.26,27.24-39.53c0.24-26.75-9.16-41.46-26.51-41.7c-18.32-0.48-27.72,13.5-27.72,39.29
		C905.87,135.28,915.51,149.5,932.87,149.26z"/>
	<path fill='#4eadab' d="M493.26,61.39l-14.56-3.02l-12.82-2.66l1.97-9.12l4.19-19.39c0.2-0.94-0.55-2.08-1.5-2.28l-21.52-4.46l-10.11-2.1
		c-0.94-0.2-2.08,0.55-2.28,1.5l-5.69,28.61l-13.92-2.89c-1.04-0.22-2.06,0.46-2.28,1.5l-4.41,21.24c-0.22,1.04,0.46,2.06,1.5,2.28
		l13.92,2.89l-11.64,55.03c-1.39,6.58-1.25,13.44,0.76,19.86c5.55,17.75,21.95,24.75,38.99,24.75c6.23,0,12.62-1.27,18.53-2.9
		c1.4-0.39,2.79-0.79,4.13-1.2c1.21-0.48,1.93-1.45,1.93-2.65v-19.76c0-0.96-0.96-1.69-1.93-1.45c-3.62,1.21-8.19,2.17-14.22,2.17
		c-5.25,0-9.34-1.47-11.52-5.53c-1.24-2.3-1.5-5-0.98-7.56l10.88-53.52l27.38,5.68c1.04,0.22,2.06-0.46,2.28-1.5l4.41-21.24
		C494.97,62.63,494.3,61.6,493.26,61.39z"/>
</g>
</svg>
