<?xml version="1.0" encoding="utf-8"?>
<!-- Generator: Adobe Illustrator 26.0.1, SVG Export Plug-In . SVG Version: 6.00 Build 0)  -->
<svg version="1.1" id="Layer_1" xmlns="http://www.w3.org/2000/svg" xmlns:xlink="http://www.w3.org/1999/xlink" x="0px" y="0px"
	 viewBox="0 0 115.5 102.8" style="enable-background:new 0 0 115.5 102.8;" xml:space="preserve">
<style type="text/css">
	.st0{fill:#4eadab;}
	.st1{fill:#FFFFFF;}
</style>
<g>
	<path class="st0" d="M57.8,0c16.7,0,33.3,0,50,0c3,0,5.5,1,6.9,3.9c0.5,1.1,0.7,2.3,0.7,3.5c0,29.3,0,58.7,0,88
		c0,4.6-2.9,7.4-7.5,7.4c-33.4,0-66.9,0-100.3,0c-4,0-7.6-2.6-7.6-7.7C0.1,72.4,0,49.7,0,27c0-6.5,0-12.9,0-19.4c0-3,1-5.5,3.8-6.8
		C5,0.3,6.5,0,7.8,0C24.5,0,41.2,0,57.8,0z M57.7,49.3c0.5,0.6,0.7,1,1,1.3c7.7,7.7,15.4,15.4,23.1,23.1c0.5,0.5,1.1,1.1,1.7,1.6
		c4.5,3.7,11.8,2.4,14.7-2.7c2.5-4.3,1.9-9-1.7-12.7C86.2,49.5,75.7,39.1,65.3,28.7c-0.7-0.7-1.5-1.4-2.4-1.8
		c-4.4-2.5-9.2-1.7-12.8,1.9C44.1,34.8,38,40.9,32,47c-4.6,4.6-9.2,9.1-13.6,13.8c-4.8,5.1-2.6,13.7,4,16c4.3,1.5,8,0.3,11.1-2.8
		c7.7-7.8,15.5-15.5,23.2-23.3C57,50.4,57.3,50,57.7,49.3z"/>
	<path class="st1" d="M57.7,49.3c-0.4,0.6-0.7,1-1,1.3C49,58.4,41.2,66.2,33.5,74c-3.2,3.2-6.8,4.3-11.1,2.8c-6.6-2.3-8.8-10.9-4-16
		c4.4-4.7,9.1-9.2,13.6-13.8c6-6.1,12.1-12.2,18.1-18.2c3.6-3.6,8.4-4.4,12.8-1.9c0.9,0.5,1.7,1.1,2.4,1.8
		c10.4,10.4,20.8,20.8,31.2,31.2c3.6,3.7,4.2,8.4,1.7,12.7c-2.9,5.1-10.2,6.4-14.7,2.7c-0.6-0.5-1.2-1-1.7-1.6
		C74.1,66,66.4,58.3,58.7,50.6C58.5,50.3,58.2,50,57.7,49.3z"/>
</g>
</svg>
