<?xml version="1.0" encoding="utf-8"?>
<!-- Generator: Adobe Illustrator 26.0.1, SVG Export Plug-In . SVG Version: 6.00 Build 0)  -->
<svg version="1.1" id="Layer_1" xmlns="http://www.w3.org/2000/svg" xmlns:xlink="http://www.w3.org/1999/xlink" x="0px" y="0px"
	 viewBox="0 0 39.6 44.4" style="enable-background:new 0 0 39.6 44.4;" xml:space="preserve">
<style type="text/css">
	.st0{fill:#FFFFFF;}
</style>
<g>
	<path class="st0" d="M5.7,38.7c9.4,0,18.8,0,28.2,0c0-0.2,0-0.4,0-0.6c0-2.3,0-4.5,0-6.8c0-1.2,0.4-2.2,1.6-2.8
		c1.8-0.9,4,0.3,4.1,2.3c0.1,3.6,0,7.2,0,10.8c0,1.5-1.1,2.6-2.6,2.7c-0.2,0-0.5,0-0.7,0c-11,0-22,0-33,0c-0.6,0-1.2-0.1-1.7-0.3
		C0.5,43.6,0,42.7,0,41.5c0-3.5,0-7,0-10.5c0-1.7,1.3-2.9,2.8-2.9c1.6,0,2.8,1.3,2.8,3c0,2.3,0,4.6,0,7C5.7,38.3,5.7,38.5,5.7,38.7z
		"/>
	<path class="st0" d="M22.7,9.8c0,0.2,0,0.4,0,0.5c0,6.4,0,12.7,0,19.1c0,1.1-0.4,2.1-1.4,2.7c-1.9,1.1-4.2-0.1-4.3-2.4
		c0-0.2,0-0.3,0-0.5c0-6.3,0-12.6,0-18.8c0-0.2,0-0.4,0-0.7c-0.2,0.2-0.3,0.3-0.4,0.4c-1.3,1.3-2.6,2.7-4,4
		c-1.5,1.5-3.7,1.2-4.6-0.6c-0.5-1-0.4-2.2,0.3-3.1c0.2-0.2,0.3-0.4,0.5-0.5c3-3,5.9-5.9,8.9-8.9c1.4-1.4,3-1.4,4.4,0c3,3,6,6,9,8.9
		c0.8,0.8,1.2,1.8,0.9,3c-0.5,2-3,2.8-4.5,1.4c-1.5-1.3-2.8-2.8-4.2-4.2c-0.1-0.1-0.3-0.3-0.4-0.4C22.8,9.8,22.7,9.8,22.7,9.8z"/>
</g>
</svg>
