<?xml version="1.0" encoding="utf-8"?>
<!-- Generator: Adobe Illustrator 26.0.1, SVG Export Plug-In . SVG Version: 6.00 Build 0)  -->
<svg version="1.1" id="Layer_1" xmlns="http://www.w3.org/2000/svg" xmlns:xlink="http://www.w3.org/1999/xlink" x="0px" y="0px"
	 viewBox="0 0 78.59 86.27" style="enable-background:new 0 0 78.59 86.27;" xml:space="preserve">
<style type="text/css">
	.st0{fill:#FFFFFF;}
</style>
<g>
	<path class="st0" d="M0.05,48.89c0-10.37,0-20.74,0-31.1c0-4.38,2.15-6.52,6.54-6.52c18.1,0,36.21,0.06,54.31-0.05
		c3.61-0.02,6.61,2.23,6.6,6.58c-0.07,20.64-0.03,41.28-0.03,61.91c0,4.33-2.22,6.52-6.58,6.52c-18.1,0-36.21-0.06-54.31,0.05
		C3.01,86.29-0.06,84,0,79.7C0.16,69.43,0.05,59.16,0.05,48.89z M59.84,78.68c0-19.99,0-39.9,0-59.86c-17.47,0-34.84,0-52.22,0
		c0,20.01,0,39.92,0,59.86C25.07,78.68,42.41,78.68,59.84,78.68z"/>
	<path class="st0" d="M71.14,7.46c-0.75,0-1.33,0-1.91,0c-17.02,0-34.04,0-51.06,0c-0.59,0-1.19,0.02-1.77-0.04
		c-2-0.21-3.38-1.82-3.32-3.84c0.05-1.92,1.5-3.41,3.46-3.57C16.79-0.01,17.03,0,17.28,0c18.65,0,37.29,0,55.94,0
		c2.75,0,4.58,1.15,5.18,3.29c0.18,0.65,0.19,1.36,0.19,2.05c0.01,21.03,0.01,42.07,0.01,63.1c0,0.39,0,0.79-0.03,1.18
		c-0.16,2.02-1.76,3.54-3.68,3.52c-1.9-0.02-3.56-1.59-3.72-3.53c-0.04-0.49-0.02-0.99-0.02-1.48c0-19.55,0-39.1,0-58.66
		C71.14,8.89,71.14,8.3,71.14,7.46z"/>
</g>
</svg>
