<?xml version="1.0" encoding="utf-8"?>
<!-- Generator: Adobe Illustrator 26.0.1, SVG Export Plug-In . SVG Version: 6.00 Build 0)  -->
<svg version="1.1" id="Layer_1" xmlns="http://www.w3.org/2000/svg" xmlns:xlink="http://www.w3.org/1999/xlink" x="0px" y="0px"
	 viewBox="0 0 326.5 326.6" style="enable-background:new 0 0 326.5 326.6;" xml:space="preserve">
<style type="text/css">
	.st0{fill:#FFFFFF;}
</style>
<g>
	<path class="st0" d="M163.5,0C201.3,0,239.2,0,277,0c20,0,35.8,8,44.4,26.5c3.4,7.3,4.8,16,4.9,24.1c0.4,75.2,0.3,150.4,0.2,225.6
		c-0.1,30.6-19.1,50.1-49.8,50.2c-75.4,0.3-150.8,0.3-226.3,0C25,326.3,7.8,313.5,1.9,291.2c-1.4-5.4-1.8-11.3-1.8-16.9
		C0,200.1,0,125.8,0,51.6C0,19.5,19.4,0.1,51.4,0C88.8,0,126.1,0,163.5,0z M237.3,99.7c1.7-11,2.5-21,4.8-30.7
		c2.5-10.2-6.4-16.4-14.9-17.7c-12.4-1.9-19,2.3-20.5,12.5c-1.7,11.9-3.7,23.7-5.6,35.4c-19.2,0-37.5,0-56.4,0
		c1.5-9.9,2.7-19.3,4.3-28.6c1.8-11.1-3-17.8-14.2-19.4c-13.1-1.8-19.4,2.4-21,13.8c-1.6,11.4-3.6,22.9-5.4,34.6
		c-12.4,0-24.1,0-35.7,0C62.2,99.8,57,105.5,57,117c0,12,5.4,18.4,15.7,18.4c9.9,0,19.9,0,30.5,0c-2.9,19.1-5.7,37.3-8.6,55.8
		c-12.4,0-24,0-35.7,0c-10.2,0-16.1,6.2-15.9,17.4c0.2,9.3,3.9,19.3,15.8,18.4c9.8-0.7,19.8-0.1,29.9-0.1c-0.2,3-0.2,4.9-0.5,6.7
		c-1.1,7.5-2.2,15-3.5,22.5c-1.9,10.9,3.2,17.3,15.4,19.1c11.7,1.8,18.1-2.8,19.7-13.7c1.6-11.4,3.6-22.9,5.3-34.1
		c19.2,0,37.6,0,56.5,0c-1.5,9.7-3.2,18.8-4.3,28c-0.5,3.7-0.7,7.8,0.6,11.1c2.6,6.3,14.1,10.3,22.6,8.7c8-1.5,10.7-5,12-14.4
		c1.6-11.2,3.4-22.4,5.2-34c12.8,0,24.9-0.2,37,0.1c6.7,0.1,11.3-2.9,12.9-8.9c1.3-4.6,1.7-9.9,0.8-14.6c-1.9-10.1-4.9-12.1-15-12.2
		c-9.7,0-19.4,0-30.2,0c2.9-19,5.6-37.1,8.4-56c12.6,0,24.7,0.1,36.7,0c8.1-0.1,12.6-3.4,13.9-11.3c0.8-4.6,0.8-9.6-0.2-14
		c-1.6-6.5-5.6-10.6-13.3-10.2C258.7,100.1,248.5,99.7,237.3,99.7z"/>
	<path class="st0" d="M130.8,190.6c2.3-15.2,4.5-30.2,7-45.1c1.7-10.2,1.8-10.1,12-10.1c15.1,0,30.3,0,46.1,0
		c-2.9,18.8-5.6,36.7-8.5,55.2C168.5,190.6,150,190.6,130.8,190.6z"/>
</g>
</svg>
