<?xml version="1.0" encoding="utf-8"?>
<!-- Generator: Adobe Illustrator 26.0.1, SVG Export Plug-In . SVG Version: 6.00 Build 0)  -->
<svg version="1.1" id="Layer_1" xmlns="http://www.w3.org/2000/svg" xmlns:xlink="http://www.w3.org/1999/xlink" x="0px" y="0px"
	 viewBox="0 0 228.6 299.7" style="enable-background:new 0 0 228.6 299.7;" xml:space="preserve">
<g>
	<path fill='white' d="M114,122.2c27.8,0,55.6,0.4,83.4-0.2c17.4-0.4,31.3,11.1,31.2,30.7c-0.2,38.8-0.1,77.6,0,116.4
		c0.1,20.8-15.5,30.6-30.9,30.5c-56-0.5-111.9-0.1-167.9-0.1c-14.4,0-24.6-7.1-28.3-19.8c-1.1-3.7-1.4-7.7-1.4-11.6
		C0,230,0,192,0,153.9c0-16.2,6.9-26.8,20.1-30.5c3.9-1.1,8.1-1.2,12.2-1.2C59.5,122.1,86.8,122.2,114,122.2z"/>
	<path fill='white' d="M33.3,87.4c-0.7-26,7.1-48.7,26.9-66C84.7-0.1,113-5.8,143.4,6.1c29.9,11.6,46.9,34.4,51,66.3c1,7.7,0.8,15.6,0.9,23.5
		c0,10.3-4.5,14.2-15.5,14.2c-10.2,0-14-4.1-14.6-14.1c-0.6-10.5-0.3-21.5-3.3-31.4c-5.9-19.2-20.3-30.7-40.1-33.5
		c-22.2-3.1-39.6,5.6-51.5,24.8c-5,8.2-6.9,17.2-6.9,26.7c0,3.9,0,7.8,0,11.8c0,13.4-12.2,20.9-23.7,14c-3.1-1.8-4.9-6.6-6.1-10.4
		C32.5,94.7,33.2,90.9,33.3,87.4z"/>
</g>
</svg>
