<?xml version="1.0" encoding="utf-8"?>
<!-- Generator: Adobe Illustrator 26.0.1, SVG Export Plug-In . SVG Version: 6.00 Build 0)  -->
<svg version="1.1" id="Layer_1" xmlns="http://www.w3.org/2000/svg" xmlns:xlink="http://www.w3.org/1999/xlink" x="0px" y="0px"
	 viewBox="0 0 23.9 24" style="enable-background:new 0 0 23.9 24;" xml:space="preserve">
<style type="text/css">
	.st0{fill:#FFFFFF;}
</style>
<g>
	<path class="st0" d="M4.4,9.4C3.9,6,4.9,3.2,7.7,1.4c2.7-1.8,5.7-1.8,8.4,0C19,3.2,20,6,19.5,9.3c0.4,0.3,0.8,0.5,1.2,0.8
		c2.5,1.9,3.5,4.4,3.1,7.4c-0.5,3.2-2.9,5.7-6,6.3c-2,0.4-3.8,0.1-5.5-1c-0.2-0.1-0.3-0.1-0.5,0c-2.8,1.7-6.3,1.5-8.8-0.6
		c-2.1-1.7-3.1-4-2.8-6.8c0.3-2.8,1.8-4.8,4.2-6.1C4.3,9.4,4.4,9.4,4.4,9.4z M6.1,8.8c0.1,0,0.1,0,0.2,0c2-0.3,3.8,0,5.6,1.1
		c0.1,0.1,0.3,0,0.4-0.1C13.4,9,14.6,8.6,16,8.6c0.6,0,1.2,0.1,1.8,0.1c0.4-2.1-0.4-4.5-2.5-5.9c-2-1.4-4.8-1.4-6.7,0
		C6.5,4.3,5.7,6.6,6.1,8.8z M5,11c-3.2,1.6-4.1,5.4-2.5,8.3c1.9,3.3,5.8,3.7,8.1,2.3c-1.7-2-2.4-4.2-1.9-6.8C7,13.9,5.8,12.7,5,11z
		 M13.3,21.5c3.2,1.7,7,0.4,8.4-2.9c1.4-3.2-0.3-6.5-2.8-7.6c-0.8,1.7-2,2.9-3.7,3.7C15.7,17.3,15,19.5,13.3,21.5z M11.9,20.5
		c1.4-1.5,1.9-3.2,1.6-5.2c-1.1,0.2-2.2,0.2-3.2,0C10.1,17.3,10.5,19,11.9,20.5z M6.6,10.4c0.3,0.9,1.6,2.2,2.6,2.6
		c0.4-0.7,0.9-1.3,1.3-2C9.3,10.4,8,10.2,6.6,10.4z M17.3,10.4c-1.4-0.2-2.7,0-3.9,0.6c0.4,0.7,0.9,1.3,1.3,2
		C15.8,12.5,16.7,11.6,17.3,10.4z M13,13.7C13,13.6,13,13.6,13,13.7c-0.3-0.6-0.6-1.1-1-1.6c-0.4,0.6-0.7,1.1-1.1,1.5
		c0,0,0,0.1,0.1,0.1C11.6,13.7,12.3,13.7,13,13.7z"/>
</g>
</svg>
