<svg version="1.1" id="Layer_1" xmlns="http://www.w3.org/2000/svg" xmlns:xlink="http://www.w3.org/1999/xlink" x="0px" y="0px"
	 viewBox="0 0 203.4 202.8" style="enable-background:new 0 0 203.4 202.8;" xml:space="preserve">
<style type="text/css">
	.st0{fill:#FFFFFF;}
</style>
<g>
	<path class="st0" d="M101.8,0C158.1,0.2,204,46.2,203.4,101.7c-0.7,56.5-45.8,101.3-101.7,101.2C45.3,202.6-0.4,156.7,0,101.2
		C0.4,45,46.1-0.1,101.8,0z M150.4,88.5c-0.8-4.8-3.5-7.9-8-8.3c-5.7-0.6-11.5-1-17.2-1.4c-4.4-0.3-7.4-2.2-9.1-6.4
		c-2-5.1-4.1-10.2-6.2-15.3c-1.5-3.4-3.7-5.7-7.9-5.7c-4.1,0-6.4,2.2-7.8,5.7c-2.1,5.1-4.4,10.1-6.4,15.2c-1.7,4.4-4.8,6.3-9.4,6.5
		C73.3,79,68.1,79.6,63,79.9c-3.9,0.3-7.1,1.7-8.3,5.7c-1.2,3.9,0.5,7,3.4,9.5c4.2,3.6,8.3,7.3,12.5,10.8c3.3,2.7,4.1,5.9,3.1,9.9
		c-1.4,5.3-2.6,10.7-3.9,16c-0.9,3.7-0.6,6.9,2.8,9.3c3.2,2.2,6.5,1.9,9.8-0.1c4.5-2.8,9.1-5.3,13.5-8.2c4.1-2.7,7.9-2.8,12-0.1
		c4.5,3,9.3,5.6,13.8,8.4c3.3,2.1,6.6,2.2,9.7-0.3c3-2.3,3.7-5.4,2.8-9c-1.2-5-2.2-10.1-3.5-15c-1.3-4.8-0.4-8.6,3.7-11.8
		c4.1-3.3,8.2-6.7,11.9-10.4C148,93,149,90.6,150.4,88.5z"/>
</g>
</svg>
